{
    "asset" : {
        "generator" : "Khronos glTF Blender I/O v0.9.36",
        "version" : "2.0"
    },
    "scene" : 0,
    "scenes" : [
        {
            "name" : "Scene",
            "nodes" : [
                0,
                4,
                5
            ]
        }
    ],
    "nodes" : [
        {
            "name" : "Camera",
            "rotation" : [
                0.483536034822464,
                0.33687159419059753,
                -0.20870360732078552,
                0.7804827094078064
            ],
            "translation" : [
                7.358891487121582,
                4.958309173583984,
                6.925790786743164
            ]
        },
        {
            "mesh" : 0,
            "name" : "instance_1",
            "rotation" : [
                -0.8800514340400696,
                0,
                0,
                0.4748784303665161
            ],
            "scale" : [
                0.05048263445496559,
                -0.047839291393756866,
                -0.11372236907482147
            ],
            "translation" : [
                -13.86933708190918,
                49.6650505065918,
                -15.64137077331543
            ]
        },
        {
            "name" : "instance_1.001",
            "scale" : [
                92,
                92,
                92
            ],
            "translation" : [
                7190.0234375,
                -11131.740234375,
                0
            ]
        },
        {
            "name" : "skp_camera_Last_Saved_SketchUp_View.001",
            "rotation" : [
                0.33758193254470825,
                -0.007201043423265219,
                -0.020073868334293365,
                0.9410545229911804
            ],
            "translation" : [
                1960.798095703125,
                12547.6396484375,
                -21128.5703125
            ]
        },
        {
            "children" : [
                1,
                2,
                3
            ],
            "name" : "SketchUp.000",
            "rotation" : [
                0.7071068286895752,
                0,
                0,
                0.7071067094802856
            ],
            "scale" : [
                0.02539999969303608,
                0.025400014594197273,
                0.025400014594197273
            ]
        },
        {
            "mesh" : 1,
            "name" : "Circle",
            "rotation" : [
                0.002444047946482897,
                0.47167903184890747,
                -0.8817470669746399,
                -0.005921520758420229
            ],
            "scale" : [
                -0.1329604685306549,
                -0.24462871253490448,
                -0.1303793340921402
            ],
            "translation" : [
                -0.4042126536369324,
                0.30084213614463806,
                1.2716476917266846
            ]
        }
    ],
    "materials" : [
        {
            "doubleSided" : true,
            "name" : "material.026",
            "pbrMetallicRoughness" : {
                "baseColorFactor" : [
                    1,
                    1,
                    1,
                    1
                ],
                "metallicFactor" : 0,
                "roughnessFactor" : 0.5
            }
        },
        {
            "doubleSided" : true,
            "name" : "material_0.019",
            "pbrMetallicRoughness" : {
                "baseColorFactor" : [
                    0.8055075407028198,
                    0.8424577713012695,
                    1,
                    1
                ],
                "metallicFactor" : 0,
                "roughnessFactor" : 0.5
            }
        },
        {
            "doubleSided" : true,
            "name" : "Material.052",
            "pbrMetallicRoughness" : {
                "baseColorTexture" : {
                    "index" : 0,
                    "texCoord" : 0
                },
                "metallicFactor" : 0,
                "roughnessFactor" : 0
            }
        }
    ],
    "meshes" : [
        {
            "name" : "ID219.001",
            "primitives" : [
                {
                    "attributes" : {
                        "POSITION" : 0,
                        "NORMAL" : 1
                    },
                    "indices" : 2,
                    "material" : 0
                },
                {
                    "attributes" : {
                        "POSITION" : 3,
                        "NORMAL" : 4
                    },
                    "indices" : 5,
                    "material" : 1
                }
            ]
        },
        {
            "name" : "Circle.005",
            "primitives" : [
                {
                    "attributes" : {
                        "POSITION" : 6,
                        "NORMAL" : 7,
                        "TEXCOORD_0" : 8
                    },
                    "indices" : 9,
                    "material" : 2
                }
            ]
        }
    ],
    "textures" : [
        {
            "source" : 0
        }
    ],
    "images" : [
        {
            "bufferView" : 10,
            "mimeType" : "image/png",
            "name" : "Image_0"
        }
    ],
    "accessors" : [
        {
            "bufferView" : 0,
            "componentType" : 5126,
            "count" : 152,
            "max" : [
                23.1875,
                138.19749450683594,
                0
            ],
            "min" : [
                -115.40239715576172,
                0,
                -10.25
            ],
            "type" : "VEC3"
        },
        {
            "bufferView" : 1,
            "componentType" : 5126,
            "count" : 152,
            "type" : "VEC3"
        },
        {
            "bufferView" : 2,
            "componentType" : 5123,
            "count" : 321,
            "type" : "SCALAR"
        },
        {
            "bufferView" : 3,
            "componentType" : 5126,
            "count" : 156,
            "max" : [
                23.1875,
                138.19749450683594,
                0
            ],
            "min" : [
                -115.40239715576172,
                0,
                -10.25
            ],
            "type" : "VEC3"
        },
        {
            "bufferView" : 4,
            "componentType" : 5126,
            "count" : 156,
            "type" : "VEC3"
        },
        {
            "bufferView" : 5,
            "componentType" : 5123,
            "count" : 321,
            "type" : "SCALAR"
        },
        {
            "bufferView" : 6,
            "componentType" : 5126,
            "count" : 474,
            "max" : [
                1.0010608434677124,
                0.2760028839111328,
                1
            ],
            "min" : [
                -1,
                0,
                -1.005793809890747
            ],
            "type" : "VEC3"
        },
        {
            "bufferView" : 7,
            "componentType" : 5126,
            "count" : 474,
            "type" : "VEC3"
        },
        {
            "bufferView" : 8,
            "componentType" : 5126,
            "count" : 474,
            "type" : "VEC2"
        },
        {
            "bufferView" : 9,
            "componentType" : 5123,
            "count" : 474,
            "type" : "SCALAR"
        }
    ],
    "bufferViews" : [
        {
            "buffer" : 0,
            "byteLength" : 1824,
            "byteOffset" : 0
        },
        {
            "buffer" : 0,
            "byteLength" : 1824,
            "byteOffset" : 1824
        },
        {
            "buffer" : 0,
            "byteLength" : 642,
            "byteOffset" : 3648
        },
        {
            "buffer" : 0,
            "byteLength" : 1872,
            "byteOffset" : 4292
        },
        {
            "buffer" : 0,
            "byteLength" : 1872,
            "byteOffset" : 6164
        },
        {
            "buffer" : 0,
            "byteLength" : 642,
            "byteOffset" : 8036
        },
        {
            "buffer" : 0,
            "byteLength" : 5688,
            "byteOffset" : 8680
        },
        {
            "buffer" : 0,
            "byteLength" : 5688,
            "byteOffset" : 14368
        },
        {
            "buffer" : 0,
            "byteLength" : 3792,
            "byteOffset" : 20056
        },
        {
            "buffer" : 0,
            "byteLength" : 948,
            "byteOffset" : 23848
        },
        {
            "buffer" : 0,
            "byteLength" : 166089,
            "byteOffset" : 24796
        }
    ],
    "buffers" : [
        {
            "byteLength" : 190888,
            "uri" : "data:application/octet-stream;base64,"
        }
    ]
}
