{
    "asset" : {
        "generator" : "Khronos glTF Blender I/O v1.1.46",
        "version" : "2.0"
    },
    "scene" : 0,
    "scenes" : [
        {
            "name" : "Scene",
            "nodes" : [
                0,
                14,
                15,
                17,
                18,
                19
            ]
        }
    ],
    "nodes" : [
        {
            "name" : "Light",
            "rotation" : [
                0.16907575726509094,
                0.7558803558349609,
                -0.27217137813568115,
                0.570947527885437
            ],
            "translation" : [
                4.076245307922363,
                5.903861999511719,
                -1.0054539442062378
            ]
        },
        {
            "name" : "group_53",
            "scale" : [
                0.25999999046325684,
                0.25999999046325684,
                0.25999999046325684
            ]
        },
        {
            "children" : [
                1
            ],
            "name" : "group_52",
            "scale" : [
                0.800000011920929,
                0.800000011920929,
                0.800000011920929
            ],
            "translation" : [
                166.2744903564453,
                0,
                0.28346461057662964
            ]
        },
        {
            "mesh" : 0,
            "name" : "group_12",
            "translation" : [
                94.33396911621094,
                0,
                -96.04564666748047
            ]
        },
        {
            "mesh" : 1,
            "name" : "group_13",
            "translation" : [
                0,
                204.41329956054688,
                0
            ]
        },
        {
            "children" : [
                3,
                4
            ],
            "name" : "group_11",
            "rotation" : [
                0,
                0,
                -1,
                -4.371138828673793e-08
            ],
            "scale" : [
                0.02129399962723255,
                0.02129399962723255,
                0.02129399962723255
            ],
            "translation" : [
                39.627140045166016,
                265.66229248046875,
                -18.934749603271484
            ]
        },
        {
            "mesh" : 2,
            "name" : "group_10",
            "translation" : [
                48.85700988769531,
                613.8446044921875,
                0
            ]
        },
        {
            "mesh" : 3,
            "name" : "group_10.001",
            "translation" : [
                48.85700988769531,
                613.8446044921875,
                0
            ]
        },
        {
            "name" : "group_10.002",
            "translation" : [
                48.85700988769531,
                613.8446044921875,
                0
            ]
        },
        {
            "mesh" : 4,
            "name" : "group_9",
            "translation" : [
                0,
                0,
                -80.32086944580078
            ]
        },
        {
            "mesh" : 5,
            "name" : "group_9.001",
            "translation" : [
                0,
                0,
                -80.32086944580078
            ]
        },
        {
            "children" : [
                6,
                7,
                8,
                9,
                10
            ],
            "name" : "group_8",
            "scale" : [
                0.25999999046325684,
                0.25999999046325684,
                0.25999999046325684
            ],
            "translation" : [
                0,
                87.63423156738281,
                0
            ]
        },
        {
            "children" : [
                5,
                11
            ],
            "name" : "group_7",
            "scale" : [
                0.5399999618530273,
                0.5399999618530273,
                0.5399999618530273
            ],
            "translation" : [
                45.535438537597656,
                0,
                -10.925660133361816
            ]
        },
        {
            "name" : "skp_camera_Last_Saved_SketchUp_View",
            "rotation" : [
                0.6717982292175293,
                -0.20794294774532318,
                0.20522907376289368,
                0.6806819438934326
            ],
            "translation" : [
                -75.97097778320312,
                97.80945587158203,
                269.68902587890625
            ]
        },
        {
            "children" : [
                2,
                12,
                13
            ],
            "name" : "SketchUp",
            "scale" : [
                0.02539999969303608,
                0.02539999969303608,
                0.02539999969303608
            ]
        },
        {
            "name" : "group_15",
            "scale" : [
                0.25999999046325684,
                0.25999999046325684,
                0.25999999046325684
            ]
        },
        {
            "name" : "group_25.001"
        },
        {
            "children" : [
                16
            ],
            "name" : "group_24",
            "scale" : [
                0.024112919345498085,
                0.024112919345498085,
                0.024112919345498085
            ],
            "translation" : [
                19.532129287719727,
                160.19839477539062,
                -16.980039596557617
            ]
        },
        {
            "name" : "group_33",
            "rotation" : [
                0,
                0,
                -1,
                -4.371138828673793e-08
            ],
            "scale" : [
                0.02129399962723255,
                0.02129399962723255,
                0.02129399962723255
            ],
            "translation" : [
                31.69162940979004,
                191.8013916015625,
                -14.930509567260742
            ]
        },
        {
            "name" : "group_44",
            "scale" : [
                0.015716999769210815,
                0.015716999769210815,
                0.015716999769210815
            ],
            "translation" : [
                8.000065803527832,
                171.8657989501953,
                -7.846695899963379
            ]
        }
    ],
    "materials" : [
        {
            "doubleSided" : true,
            "emissiveFactor" : [
                0,
                0,
                0
            ],
            "name" : "material",
            "pbrMetallicRoughness" : {
                "baseColorFactor" : [
                    0.6431373357772827,
                    0.6980392336845398,
                    0.7333332896232605,
                    1
                ],
                "metallicFactor" : 0,
                "roughnessFactor" : 0.5
            }
        },
        {
            "doubleSided" : true,
            "emissiveFactor" : [
                0,
                0,
                0
            ],
            "name" : "Zz222__34_F2u4",
            "pbrMetallicRoughness" : {
                "baseColorFactor" : [
                    0.800000011920929,
                    0.800000011920929,
                    0.800000011920929,
                    1
                ],
                "metallicFactor" : 0,
                "roughnessFactor" : 0.5
            }
        },
        {
            "doubleSided" : true,
            "emissiveFactor" : [
                0,
                0,
                0
            ],
            "name" : "__0002_MediumVioletRed_1",
            "pbrMetallicRoughness" : {
                "baseColorFactor" : [
                    0.17647060751914978,
                    0.17647060751914978,
                    0.17647060751914978,
                    1
                ],
                "metallicFactor" : 0,
                "roughnessFactor" : 0.5
            }
        },
        {
            "doubleSided" : true,
            "emissiveFactor" : [
                0,
                0,
                0
            ],
            "name" : "Z55.15",
            "pbrMetallicRoughness" : {
                "baseColorFactor" : [
                    0.800000011920929,
                    0.800000011920929,
                    0.800000011920929,
                    1
                ],
                "metallicFactor" : 0,
                "roughnessFactor" : 0.5
            }
        }
    ],
    "meshes" : [
        {
            "name" : "ID205",
            "primitives" : [
                {
                    "attributes" : {
                        "POSITION" : 0,
                        "NORMAL" : 1,
                        "TEXCOORD_0" : 2
                    },
                    "indices" : 3,
                    "material" : 0
                },
                {
                    "attributes" : {
                        "POSITION" : 4,
                        "NORMAL" : 5,
                        "TEXCOORD_0" : 6
                    },
                    "indices" : 7,
                    "material" : 1
                }
            ]
        },
        {
            "name" : "ID223",
            "primitives" : [
                {
                    "attributes" : {
                        "POSITION" : 8,
                        "NORMAL" : 9,
                        "TEXCOORD_0" : 10
                    },
                    "indices" : 11,
                    "material" : 0
                },
                {
                    "attributes" : {
                        "POSITION" : 12,
                        "NORMAL" : 13,
                        "TEXCOORD_0" : 14
                    },
                    "indices" : 15,
                    "material" : 1
                }
            ]
        },
        {
            "name" : "ID183",
            "primitives" : [
                {
                    "attributes" : {
                        "POSITION" : 16,
                        "NORMAL" : 17
                    },
                    "indices" : 18,
                    "material" : 2
                }
            ]
        },
        {
            "name" : "ID191",
            "primitives" : [
                {
                    "attributes" : {
                        "POSITION" : 19,
                        "NORMAL" : 20
                    },
                    "indices" : 21,
                    "material" : 2
                }
            ]
        },
        {
            "name" : "ID155",
            "primitives" : [
                {
                    "attributes" : {
                        "POSITION" : 22,
                        "NORMAL" : 23
                    },
                    "indices" : 24,
                    "material" : 0
                },
                {
                    "attributes" : {
                        "POSITION" : 25,
                        "NORMAL" : 26
                    },
                    "indices" : 27,
                    "material" : 2
                }
            ]
        },
        {
            "name" : "ID167",
            "primitives" : [
                {
                    "attributes" : {
                        "POSITION" : 28,
                        "NORMAL" : 29,
                        "TEXCOORD_0" : 30
                    },
                    "indices" : 31,
                    "material" : 2
                },
                {
                    "attributes" : {
                        "POSITION" : 32,
                        "NORMAL" : 33,
                        "TEXCOORD_0" : 34
                    },
                    "indices" : 35,
                    "material" : 3
                }
            ]
        }
    ],
    "accessors" : [
        {
            "bufferView" : 0,
            "componentType" : 5126,
            "count" : 218,
            "max" : [
                188.22999572753906,
                204.41329956054688,
                0
            ],
            "min" : [
                0,
                0,
                -188.22999572753906
            ],
            "type" : "VEC3"
        },
        {
            "bufferView" : 1,
            "componentType" : 5126,
            "count" : 218,
            "type" : "VEC3"
        },
        {
            "bufferView" : 2,
            "componentType" : 5126,
            "count" : 218,
            "type" : "VEC2"
        },
        {
            "bufferView" : 3,
            "componentType" : 5123,
            "count" : 588,
            "type" : "SCALAR"
        },
        {
            "bufferView" : 4,
            "componentType" : 5126,
            "count" : 234,
            "max" : [
                188.22999572753906,
                204.41329956054688,
                0
            ],
            "min" : [
                0,
                0,
                -188.22999572753906
            ],
            "type" : "VEC3"
        },
        {
            "bufferView" : 5,
            "componentType" : 5126,
            "count" : 234,
            "type" : "VEC3"
        },
        {
            "bufferView" : 6,
            "componentType" : 5126,
            "count" : 234,
            "type" : "VEC2"
        },
        {
            "bufferView" : 7,
            "componentType" : 5123,
            "count" : 588,
            "type" : "SCALAR"
        },
        {
            "bufferView" : 8,
            "componentType" : 5126,
            "count" : 521,
            "max" : [
                376.86248779296875,
                442.59417724609375,
                0
            ],
            "min" : [
                0,
                0,
                -376.86248779296875
            ],
            "type" : "VEC3"
        },
        {
            "bufferView" : 9,
            "componentType" : 5126,
            "count" : 521,
            "type" : "VEC3"
        },
        {
            "bufferView" : 10,
            "componentType" : 5126,
            "count" : 521,
            "type" : "VEC2"
        },
        {
            "bufferView" : 11,
            "componentType" : 5123,
            "count" : 1836,
            "type" : "SCALAR"
        },
        {
            "bufferView" : 12,
            "componentType" : 5126,
            "count" : 563,
            "max" : [
                376.86248779296875,
                442.59417724609375,
                0
            ],
            "min" : [
                0,
                0,
                -376.86248779296875
            ],
            "type" : "VEC3"
        },
        {
            "bufferView" : 13,
            "componentType" : 5126,
            "count" : 563,
            "type" : "VEC3"
        },
        {
            "bufferView" : 14,
            "componentType" : 5126,
            "count" : 563,
            "type" : "VEC2"
        },
        {
            "bufferView" : 15,
            "componentType" : 5123,
            "count" : 1836,
            "type" : "SCALAR"
        },
        {
            "bufferView" : 16,
            "componentType" : 5126,
            "count" : 1320,
            "max" : [
                179.86219787597656,
                56.10200881958008,
                0
            ],
            "min" : [
                0,
                0,
                -179.86219787597656
            ],
            "type" : "VEC3"
        },
        {
            "bufferView" : 17,
            "componentType" : 5126,
            "count" : 1320,
            "type" : "VEC3"
        },
        {
            "bufferView" : 18,
            "componentType" : 5123,
            "count" : 6624,
            "type" : "SCALAR"
        },
        {
            "bufferView" : 19,
            "componentType" : 5126,
            "count" : 626,
            "max" : [
                113.57159423828125,
                103.0667953491211,
                -66.2906494140625
            ],
            "min" : [
                66.2906494140625,
                56.10200881958008,
                -113.57159423828125
            ],
            "type" : "VEC3"
        },
        {
            "bufferView" : 20,
            "componentType" : 5126,
            "count" : 626,
            "type" : "VEC3"
        },
        {
            "bufferView" : 21,
            "componentType" : 5123,
            "count" : 3312,
            "type" : "SCALAR"
        },
        {
            "bufferView" : 22,
            "componentType" : 5126,
            "count" : 1030,
            "max" : [
                143.09129333496094,
                803.1181640625,
                -5.684341886080802e-14
            ],
            "min" : [
                -3.637979240772582e-12,
                -337.0546875,
                -19.220470428466797
            ],
            "type" : "VEC3"
        },
        {
            "bufferView" : 23,
            "componentType" : 5126,
            "count" : 1030,
            "type" : "VEC3"
        },
        {
            "bufferView" : 24,
            "componentType" : 5123,
            "count" : 4071,
            "type" : "SCALAR"
        },
        {
            "bufferView" : 25,
            "componentType" : 5126,
            "count" : 1030,
            "max" : [
                143.09129333496094,
                803.1181640625,
                -5.684341886080802e-14
            ],
            "min" : [
                -3.637979240772582e-12,
                -337.0546875,
                -19.220470428466797
            ],
            "type" : "VEC3"
        },
        {
            "bufferView" : 26,
            "componentType" : 5126,
            "count" : 1030,
            "type" : "VEC3"
        },
        {
            "bufferView" : 27,
            "componentType" : 5123,
            "count" : 4071,
            "type" : "SCALAR"
        },
        {
            "bufferView" : 28,
            "componentType" : 5126,
            "count" : 41,
            "max" : [
                143.09129333496094,
                717.6907958984375,
                -5.237578868865967
            ],
            "min" : [
                134.40219116210938,
                717.6907958984375,
                -13.982889175415039
            ],
            "type" : "VEC3"
        },
        {
            "bufferView" : 29,
            "componentType" : 5126,
            "count" : 41,
            "type" : "VEC3"
        },
        {
            "bufferView" : 30,
            "componentType" : 5126,
            "count" : 41,
            "type" : "VEC2"
        },
        {
            "bufferView" : 31,
            "componentType" : 5123,
            "count" : 66,
            "type" : "SCALAR"
        },
        {
            "bufferView" : 32,
            "componentType" : 5126,
            "count" : 41,
            "max" : [
                143.09129333496094,
                717.6907958984375,
                -5.237578868865967
            ],
            "min" : [
                134.40219116210938,
                717.6907958984375,
                -13.982889175415039
            ],
            "type" : "VEC3"
        },
        {
            "bufferView" : 33,
            "componentType" : 5126,
            "count" : 41,
            "type" : "VEC3"
        },
        {
            "bufferView" : 34,
            "componentType" : 5126,
            "count" : 41,
            "type" : "VEC2"
        },
        {
            "bufferView" : 35,
            "componentType" : 5123,
            "count" : 66,
            "type" : "SCALAR"
        }
    ],
    "bufferViews" : [
        {
            "buffer" : 0,
            "byteLength" : 2616,
            "byteOffset" : 0
        },
        {
            "buffer" : 0,
            "byteLength" : 2616,
            "byteOffset" : 2616
        },
        {
            "buffer" : 0,
            "byteLength" : 1744,
            "byteOffset" : 5232
        },
        {
            "buffer" : 0,
            "byteLength" : 1176,
            "byteOffset" : 6976
        },
        {
            "buffer" : 0,
            "byteLength" : 2808,
            "byteOffset" : 8152
        },
        {
            "buffer" : 0,
            "byteLength" : 2808,
            "byteOffset" : 10960
        },
        {
            "buffer" : 0,
            "byteLength" : 1872,
            "byteOffset" : 13768
        },
        {
            "buffer" : 0,
            "byteLength" : 1176,
            "byteOffset" : 15640
        },
        {
            "buffer" : 0,
            "byteLength" : 6252,
            "byteOffset" : 16816
        },
        {
            "buffer" : 0,
            "byteLength" : 6252,
            "byteOffset" : 23068
        },
        {
            "buffer" : 0,
            "byteLength" : 4168,
            "byteOffset" : 29320
        },
        {
            "buffer" : 0,
            "byteLength" : 3672,
            "byteOffset" : 33488
        },
        {
            "buffer" : 0,
            "byteLength" : 6756,
            "byteOffset" : 37160
        },
        {
            "buffer" : 0,
            "byteLength" : 6756,
            "byteOffset" : 43916
        },
        {
            "buffer" : 0,
            "byteLength" : 4504,
            "byteOffset" : 50672
        },
        {
            "buffer" : 0,
            "byteLength" : 3672,
            "byteOffset" : 55176
        },
        {
            "buffer" : 0,
            "byteLength" : 15840,
            "byteOffset" : 58848
        },
        {
            "buffer" : 0,
            "byteLength" : 15840,
            "byteOffset" : 74688
        },
        {
            "buffer" : 0,
            "byteLength" : 13248,
            "byteOffset" : 90528
        },
        {
            "buffer" : 0,
            "byteLength" : 7512,
            "byteOffset" : 103776
        },
        {
            "buffer" : 0,
            "byteLength" : 7512,
            "byteOffset" : 111288
        },
        {
            "buffer" : 0,
            "byteLength" : 6624,
            "byteOffset" : 118800
        },
        {
            "buffer" : 0,
            "byteLength" : 12360,
            "byteOffset" : 125424
        },
        {
            "buffer" : 0,
            "byteLength" : 12360,
            "byteOffset" : 137784
        },
        {
            "buffer" : 0,
            "byteLength" : 8142,
            "byteOffset" : 150144
        },
        {
            "buffer" : 0,
            "byteLength" : 12360,
            "byteOffset" : 158288
        },
        {
            "buffer" : 0,
            "byteLength" : 12360,
            "byteOffset" : 170648
        },
        {
            "buffer" : 0,
            "byteLength" : 8142,
            "byteOffset" : 183008
        },
        {
            "buffer" : 0,
            "byteLength" : 492,
            "byteOffset" : 191152
        },
        {
            "buffer" : 0,
            "byteLength" : 492,
            "byteOffset" : 191644
        },
        {
            "buffer" : 0,
            "byteLength" : 328,
            "byteOffset" : 192136
        },
        {
            "buffer" : 0,
            "byteLength" : 132,
            "byteOffset" : 192464
        },
        {
            "buffer" : 0,
            "byteLength" : 492,
            "byteOffset" : 192596
        },
        {
            "buffer" : 0,
            "byteLength" : 492,
            "byteOffset" : 193088
        },
        {
            "buffer" : 0,
            "byteLength" : 328,
            "byteOffset" : 193580
        },
        {
            "buffer" : 0,
            "byteLength" : 132,
            "byteOffset" : 193908
        }
    ],
    "buffers" : [
        {
            "byteLength" : 194040,
            "uri" : "data:application/octet-stream;base64,"
        }
    ]
}
