{
  "accessors": [
    {
      "bufferView": 1,
      "componentType": 5126,
      "count": 146,
      "max": [
        14.250495910644531,
        12.007449150085449,
        9.7156524658203125
      ],
      "min": [
        -14.250495910644531,
        -8.0854053497314453,
        5.7381958961486816
      ],
      "type": "VEC3"
    },
    {
      "bufferView": 0,
      "componentType": 5125,
      "count": 146,
      "max": [
        145
      ],
      "min": [
        0
      ],
      "type": "SCALAR"
    },
    {
      "bufferView": 1,
      "byteOffset": 1752,
      "componentType": 5126,
      "count": 8107,
      "max": [
        14.276993751525879,
        12.055743217468262,
        9.801060676574707
      ],
      "min": [
        -14.276993751525879,
        -8.1154251098632812,
        -0.049724001437425613
      ],
      "type": "VEC3"
    },
    {
      "bufferView": 1,
      "byteOffset": 99036,
      "componentType": 5126,
      "count": 8107,
      "max": [
        1,
        1,
        1
      ],
      "min": [
        -1,
        -1,
        -1
      ],
      "type": "VEC3"
    },
    {
      "bufferView": 0,
      "byteOffset": 584,
      "componentType": 5125,
      "count": 16260,
      "max": [
        8106
      ],
      "min": [
        0
      ],
      "type": "SCALAR"
    },
    {
      "bufferView": 1,
      "byteOffset": 196320,
      "componentType": 5126,
      "count": 65532,
      "max": [
        14.328767776489258,
        12.033422470092773,
        9.8775568008422852
      ],
      "min": [
        -14.343989372253418,
        -8.1266012191772461,
        7.4291701316833496
      ],
      "type": "VEC3"
    },
    {
      "bufferView": 1,
      "byteOffset": 982704,
      "componentType": 5126,
      "count": 65532,
      "max": [
        0.26721149682998657,
        0.98959624767303467,
        0.99960511922836304
      ],
      "min": [
        -0.26721149682998657,
        -0.98741209506988525,
        0.13889946043491364
      ],
      "type": "VEC3"
    },
    {
      "bufferView": 0,
      "byteOffset": 65624,
      "componentType": 5125,
      "count": 120720,
      "max": [
        65531
      ],
      "min": [
        0
      ],
      "type": "SCALAR"
    },
    {
      "bufferView": 1,
      "byteOffset": 1769088,
      "componentType": 5126,
      "count": 27436,
      "max": [
        14.343989372253418,
        12.033422470092773,
        9.7344808578491211
      ],
      "min": [
        1.4000339508056641,
        -8.1266012191772461,
        7.4302082061767578
      ],
      "type": "VEC3"
    },
    {
      "bufferView": 1,
      "byteOffset": 2098320,
      "componentType": 5126,
      "count": 27436,
      "max": [
        0.26721060276031494,
        0.98959624767303467,
        0.99764043092727661
      ],
      "min": [
        0.017299171537160873,
        -0.98741209506988525,
        0.13889946043491364
      ],
      "type": "VEC3"
    },
    {
      "bufferView": 0,
      "byteOffset": 548504,
      "componentType": 5125,
      "count": 49296,
      "max": [
        27435
      ],
      "min": [
        0
      ],
      "type": "SCALAR"
    },
    {
      "bufferView": 1,
      "byteOffset": 2427552,
      "componentType": 5126,
      "count": 22203,
      "max": [
        14.303033828735352,
        12.140078544616699,
        9.8597269058227539
      ],
      "min": [
        -14.303033828735352,
        -8.2121715545654297,
        2.0384929180145264
      ],
      "type": "VEC3"
    },
    {
      "bufferView": 1,
      "byteOffset": 2693988,
      "componentType": 5126,
      "count": 22203,
      "max": [
        1,
        1,
        -0
      ],
      "min": [
        -1,
        -1,
        -0
      ],
      "type": "VEC3"
    },
    {
      "bufferView": 0,
      "byteOffset": 745688,
      "componentType": 5125,
      "count": 55062,
      "max": [
        22202
      ],
      "min": [
        0
      ],
      "type": "SCALAR"
    },
    {
      "bufferView": 1,
      "byteOffset": 2960424,
      "componentType": 5126,
      "count": 558,
      "max": [
        -8.4631204605102539,
        -7.7629098892211914,
        6.1582889556884766
      ],
      "min": [
        -12.701740264892578,
        -7.9438118934631348,
        -0.049724001437425613
      ],
      "type": "VEC3"
    },
    {
      "bufferView": 1,
      "byteOffset": 2967120,
      "componentType": 5126,
      "count": 558,
      "max": [
        1,
        1,
        1
      ],
      "min": [
        -1,
        -1,
        -1
      ],
      "type": "VEC3"
    },
    {
      "bufferView": 0,
      "byteOffset": 965936,
      "componentType": 5125,
      "count": 1116,
      "max": [
        557
      ],
      "min": [
        0
      ],
      "type": "SCALAR"
    },
    {
      "bufferView": 1,
      "byteOffset": 2973816,
      "componentType": 5126,
      "count": 10339,
      "max": [
        14.377052307128906,
        12.124268531799316,
        7.4953927993774414
      ],
      "min": [
        -14.377052307128906,
        -8.1350202560424805,
        2.1022810935974121
      ],
      "type": "VEC3"
    },
    {
      "bufferView": 1,
      "byteOffset": 3097884,
      "componentType": 5126,
      "count": 10339,
      "max": [
        1,
        0.98736000061035156,
        0
      ],
      "min": [
        -1,
        -0.98734188079833984,
        0
      ],
      "type": "VEC3"
    },
    {
      "bufferView": 0,
      "byteOffset": 970400,
      "componentType": 5125,
      "count": 24336,
      "max": [
        10338
      ],
      "min": [
        0
      ],
      "type": "SCALAR"
    },
    {
      "bufferView": 1,
      "byteOffset": 3221952,
      "componentType": 5126,
      "count": 7271,
      "max": [
        24.45988655090332,
        24.45988655090332,
        9.8981761932373047
      ],
      "min": [
        -24.45988655090332,
        -24.45988655090332,
        -0.049724001437425613
      ],
      "type": "VEC3"
    },
    {
      "bufferView": 1,
      "byteOffset": 3309204,
      "componentType": 5126,
      "count": 7271,
      "max": [
        1,
        1,
        1
      ],
      "min": [
        -1,
        -1,
        -1
      ],
      "type": "VEC3"
    },
    {
      "bufferView": 0,
      "byteOffset": 1067744,
      "componentType": 5125,
      "count": 14160,
      "max": [
        7270
      ],
      "min": [
        0
      ],
      "type": "SCALAR"
    },
    {
      "bufferView": 1,
      "byteOffset": 3396456,
      "componentType": 5126,
      "count": 29656,
      "max": [
        13.892387390136719,
        11.542746543884277,
        5.0029869079589844
      ],
      "min": [
        -13.826813697814941,
        -6.5956711769104004,
        -0.0013379999436438084
      ],
      "type": "VEC3"
    },
    {
      "bufferView": 1,
      "byteOffset": 3752328,
      "componentType": 5126,
      "count": 29656,
      "max": [
        1,
        1,
        1
      ],
      "min": [
        -1,
        -0.99600476026535034,
        -1
      ],
      "type": "VEC3"
    },
    {
      "bufferView": 0,
      "byteOffset": 1124384,
      "componentType": 5125,
      "count": 45528,
      "max": [
        29655
      ],
      "min": [
        0
      ],
      "type": "SCALAR"
    },
    {
      "bufferView": 1,
      "byteOffset": 4108200,
      "componentType": 5126,
      "count": 5662,
      "max": [
        14.568510055541992,
        12.06865119934082,
        7.272212028503418
      ],
      "min": [
        -14.568510055541992,
        -8.388397216796875,
        -0.049724001437425613
      ],
      "type": "VEC3"
    },
    {
      "bufferView": 1,
      "byteOffset": 4176144,
      "componentType": 5126,
      "count": 5662,
      "max": [
        1,
        1,
        1
      ],
      "min": [
        -1,
        -1,
        -1
      ],
      "type": "VEC3"
    },
    {
      "bufferView": 0,
      "byteOffset": 1306496,
      "componentType": 5125,
      "count": 11460,
      "max": [
        5661
      ],
      "min": [
        0
      ],
      "type": "SCALAR"
    },
    {
      "bufferView": 1,
      "byteOffset": 4244088,
      "componentType": 5126,
      "count": 7580,
      "max": [
        14.603699684143066,
        12.253240585327148,
        9.6230220794677734
      ],
      "min": [
        -14.603699684143066,
        -8.3698234558105469,
        -0.01501499954611063
      ],
      "type": "VEC3"
    },
    {
      "bufferView": 1,
      "byteOffset": 4335048,
      "componentType": 5126,
      "count": 7580,
      "max": [
        1,
        1,
        1
      ],
      "min": [
        -1,
        -1,
        -1
      ],
      "type": "VEC3"
    },
    {
      "bufferView": 0,
      "byteOffset": 1352336,
      "componentType": 5125,
      "count": 11568,
      "max": [
        7579
      ],
      "min": [
        0
      ],
      "type": "SCALAR"
    }
  ],
  "asset": {
    "extras": {
      "author": "thetrady (https://sketchfab.com/thetrady)",
      "license": "CC-BY-4.0 (http://creativecommons.org/licenses/by/4.0/)",
      "source": "https://sketchfab.com/3d-models/hangar-e6886422f7094c4592834f1c34b6cd0f",
      "title": "Hangar"
    },
    "generator": "Sketchfab-5.50.0",
    "version": "2.0"
  },
  "bufferViews": [
    {
      "buffer": 0,
      "byteLength": 1398608,
      "byteOffset": 0,
      "name": "floatBufferViews",
      "target": 34963
    },
    {
      "buffer": 0,
      "byteLength": 4426008,
      "byteOffset": 1398608,
      "byteStride": 12,
      "name": "floatBufferViews",
      "target": 34962
    }
  ],
  "buffers": [
    {
      "byteLength": 5824616,
      "uri": "scene.bin"
    }
  ],
  "materials": [
    {
      "doubleSided": true,
      "name": "None",
      "pbrMetallicRoughness": {
        "baseColorFactor": [
          1,
          1,
          1,
          1
        ],
        "metallicFactor": 0.14195884149999999,
        "roughnessFactor": 0.59999999999999998
      }
    }
  ],
  "meshes": [
    {
      "primitives": [
        {
          "attributes": {
            "POSITION": 0
          },
          "indices": 1,
          "material": 0,
          "mode": 1
        }
      ]
    },
    {
      "primitives": [
        {
          "attributes": {
            "NORMAL": 3,
            "POSITION": 2
          },
          "indices": 4,
          "material": 0,
          "mode": 4
        }
      ]
    },
    {
      "primitives": [
        {
          "attributes": {
            "NORMAL": 6,
            "POSITION": 5
          },
          "indices": 7,
          "material": 0,
          "mode": 4
        }
      ]
    },
    {
      "primitives": [
        {
          "attributes": {
            "NORMAL": 9,
            "POSITION": 8
          },
          "indices": 10,
          "material": 0,
          "mode": 4
        }
      ]
    },
    {
      "primitives": [
        {
          "attributes": {
            "NORMAL": 12,
            "POSITION": 11
          },
          "indices": 13,
          "material": 0,
          "mode": 4
        }
      ]
    },
    {
      "primitives": [
        {
          "attributes": {
            "NORMAL": 15,
            "POSITION": 14
          },
          "indices": 16,
          "material": 0,
          "mode": 4
        }
      ]
    },
    {
      "primitives": [
        {
          "attributes": {
            "NORMAL": 18,
            "POSITION": 17
          },
          "indices": 19,
          "material": 0,
          "mode": 4
        }
      ]
    },
    {
      "primitives": [
        {
          "attributes": {
            "NORMAL": 21,
            "POSITION": 20
          },
          "indices": 22,
          "material": 0,
          "mode": 4
        }
      ]
    },
    {
      "primitives": [
        {
          "attributes": {
            "NORMAL": 24,
            "POSITION": 23
          },
          "indices": 25,
          "material": 0,
          "mode": 4
        }
      ]
    },
    {
      "primitives": [
        {
          "attributes": {
            "NORMAL": 27,
            "POSITION": 26
          },
          "indices": 28,
          "material": 0,
          "mode": 4
        }
      ]
    },
    {
      "primitives": [
        {
          "attributes": {
            "NORMAL": 30,
            "POSITION": 29
          },
          "indices": 31,
          "material": 0,
          "mode": 4
        }
      ]
    }
  ],
  "nodes": [
    {
      "children": [
        1
      ],
      "name": "RootNode (gltf orientation matrix)",
      "rotation": [
        -0.70710678118654746,
        -0,
        -0,
        0.70710678118654757
      ]
    },
    {
      "children": [
        2
      ],
      "name": "RootNode (model correction matrix)"
    },
    {
      "children": [
        3,
        4,
        5,
        6,
        7,
        8,
        9,
        10,
        11,
        12,
        13
      ],
      "name": "Hangar.obj.cleaner.materialmerger.gles"
    },
    {
      "mesh": 0,
      "name": ""
    },
    {
      "mesh": 1,
      "name": ""
    },
    {
      "mesh": 2,
      "name": ""
    },
    {
      "mesh": 3,
      "name": ""
    },
    {
      "mesh": 4,
      "name": ""
    },
    {
      "mesh": 5,
      "name": ""
    },
    {
      "mesh": 6,
      "name": ""
    },
    {
      "mesh": 7,
      "name": ""
    },
    {
      "mesh": 8,
      "name": ""
    },
    {
      "mesh": 9,
      "name": ""
    },
    {
      "mesh": 10,
      "name": ""
    }
  ],
  "scene": 0,
  "scenes": [
    {
      "name": "OSG_Scene",
      "nodes": [
        0
      ]
    }
  ]
}

